PathFileType	4	(X/Y/Z)	pose_F01_0-96.trc
DataRate	CameraRate	NumFrames	NumMarkers	Units	OrigDataRate	OrigDataStartFrame	OrigNumFrames
30	30	6	21	m	30	72	96
Frame#	Time	CHip			RHip			RKnee			RAnkle			RBigToe			RSmallToe			RHeel			LHip			LKnee			LAnkle			LBigToe			LSmallToe			LHeel			Neck			Nose			RShoulder			RElbow			RWrist			LShoulder			LElbow			LWrist			
		X1	Y1	Z1	X2	Y2	Z2	X3	Y3	Z3	X4	Y4	Z4	X5	Y5	Z5	X6	Y6	Z6	X7	Y7	Z7	X8	Y8	Z8	X9	Y9	Z9	X10	Y10	Z10	X11	Y11	Z11	X12	Y12	Z12	X13	Y13	Z13	X14	Y14	Z14	X15	Y15	Z15	X16	Y16	Z16	X17	Y17	Z17	X18	Y18	Z18	X19	Y19	Z19	X20	Y20	Z20	X21	Y21	Z21	
72	2.4	-0.09487004595593229	1.8344874043051056	-0.6860876322537013	-0.114498079083211	1.8328285418411523	-0.6310936301822557	-0.12193957916298469	1.6986558533903982	-0.6105910851496384	-0.12411500086411822	1.576940964655293	-0.5924986101050431	-0.15998703278203028	1.548925418583255	-0.6114066462703922	-0.1595045358833505	1.5527454771616698	-0.5873378594304645	-0.1131940441326156	1.5676036703878327	-0.5898590443348427	-0.07418999058833842	1.8361552529218725	-0.7412919755969203	-0.08430527347649942	1.7073701873813905	-0.7187540606004216	-0.21011912454290957	1.517963809713026	-1.2306217673017947	-0.2158805269616881	1.492841503534218	-1.1816562982015226	-0.19538789727112105	1.496651376344677	-1.1962964630320105	-0.21059899684632655	1.5053024158257404	-1.2423033156137218	-0.0654742838881271	1.9859298711249946	-0.7179846640655262	-0.08748980286375616	2.0330490167575954	-0.7487628344078598	-1.7438223703416338	1.8904090518923446	1.1757442719186986	-0.1417074616390205	1.9224019263151848	-0.5897062139740653	-0.20813407542515658	1.9148248319419843	-0.6151295379906653	-0.02957375663000786	1.9849864932631205	-0.7957703153031067	-0.06310939654602347	1.9346680096001092	-0.8062240210521682	-0.08551290234976994	1.9790220527592417	-0.779250936041273
73	2.433333333333333	-0.09232619291829101	1.8317184219587788	-0.6882529333388256	-0.11344206801680896	1.8310906531744606	-0.6278167372736081	-0.12325170651269172	1.7029388270414174	-0.6137742352436311	-0.12438020157034806	1.575654080976668	-0.5918844431813726	-0.15900688090388548	1.5488243346429404	-0.6080946173325164	-0.1589094384714172	1.5518377041417823	-0.5835081363946992	-0.11438185620220008	1.5674840576879656	-0.5843520246690938	-0.07156791496013705	1.8324793755721505	-0.7433813821675714	-0.08468249517995412	1.7075560666021525	-0.7186632042484118	-0.21125919953889424	1.5196829429382166	-1.2360077203950197	-0.2009093321034119	1.4931463610023934	-1.1918601620499096	-0.1846802352023204	1.5000436643471802	-1.2099777653900996	-0.21987380508829252	1.5088253968503123	-1.2393624580600755	-0.06106664055029621	1.985003503463757	-0.7230515488585999	-0.0874548675889443	2.029912081308579	-0.7486632654557593	-1.742567823077275	1.8904241368070507	1.1741108076997326	-0.146858826377439	1.924287357796736	-0.5796827884073009	-0.20537164695479007	1.9015368319059165	-0.5549521540264245	-0.02509999386824704	1.9832010085269285	-0.8012787755880156	-0.057879801133994234	1.9294548115078187	-0.8082170241654039	-1.3679121347552141	1.8871748145159015	0.5762513287335967
74	2.466666666666667	-0.08947632047178895	1.8357065248957056	-0.6846253286917268	-0.11287510626614579	1.8354362540639282	-0.6338026896099713	-0.13100660392260896	1.7052020644449328	-0.6313952695299727	-0.12414253418837948	1.5769329461022716	-0.5924509072354776	-0.1599597843554005	1.5488294308413224	-0.6114919023022024	-0.15982430129503955	1.5517984273748897	-0.5867052095212208	-0.11362318939463745	1.5685085990678687	-0.5807698610774144	-0.0651568585185858	1.834577334078106	-0.7353827614276872	-0.08282952026625184	1.7057171555235953	-0.7201281548108932	-0.21181837106422405	1.5170910953719436	-1.2375024241682056	-0.19671031964087252	1.489975137812244	-1.1870129271115077	-0.1812384959725169	1.4962546488489674	-1.2085541591869178	-0.21784539295528194	1.506759065175749	-1.2449882535342647	-0.0590954654338871	1.982220746802098	-0.7253505852773091	-0.08321732409343595	2.0275802507360003	-0.7536063447480261	-1.731351650723077	1.89043967418266	1.1552339691132845	-0.14959691407975612	1.9219745707556344	-0.5775410180206941	-0.21198063640096795	1.874685073623721	-0.5282795102807389	-0.019242544699804763	1.9807691908370368	-0.7995603815699264	-0.05094150228389676	1.9275016281103012	-0.8147673457860952	-0.07417730779636081	1.9765102397277403	-0.7913750105499786
75	2.5	-0.09055862237936128	1.830784288151716	-0.6904959279907116	-0.11328765690342579	1.8314588715865021	-0.6364603441375216	-0.13394686568991573	1.7042748266627297	-0.6324382193462922	-0.12447868968482209	1.575702141463828	-0.591893409769445	-0.1630193558868513	1.548673456583086	-0.6125037385595872	-0.16198868300408104	1.5517075682196315	-0.5846108862347117	-0.11455409633648421	1.5683685722996439	-0.5840021796063313	-0.06773289546303633	1.8313077829526736	-0.7477268581954266	-0.0806362386929165	1.702909176017868	-0.7221997888336061	-0.20872711441689015	1.516791859789431	-1.2390263035458071	-0.19439061528816046	1.4902576160736873	-1.1916604853467954	-0.17804645024573068	1.4944486784711728	-1.209237470796986	-0.2171080903684531	1.5064651334048522	-1.2414977220475862	-0.05602430563399272	1.9813676853809314	-0.7361717128608192	-0.07854777657324018	2.0248675550654824	-0.7579108307591023	-1.730358993280725	1.890401966535375	1.1541083651048547	-0.13700023372571934	1.9226878027928784	-0.5823899262217284	-0.19925894378354195	1.881590669632631	-0.5425933024863158	-0.017286292832461227	1.9781908567744544	-0.8163169789663625	-0.04619072561202686	1.9245614367887807	-0.8191688232632938	-1.345856350409909	1.8773791033034415	0.5504914962923645
76	2.533333333333333	-0.08854047138559093	1.83607331572358	-0.6935542783273514	-0.11329138541884937	1.8355448963056806	-0.6371486411243249	-0.1359536155256154	1.7055317543016315	-0.63055948224956	-0.12778548255844097	1.5768854768955873	-0.5925022692074426	-0.1654121893253869	1.5498038224567672	-0.6099923704225246	-0.16420649849254645	1.551812766432541	-0.5823048891104059	-0.11892572772872886	1.5679151962991036	-0.5875953178378981	-0.06549290272795526	1.83520468546243	-0.7506323612369536	-0.08016862564565838	1.705383319724115	-0.7231414214594005	-0.2086384464590877	1.5154758710224108	-1.2382700236936692	-0.19592349355567937	1.4911439077566417	-1.1846888862564229	-0.17808102744503684	1.4943288714239176	-1.2091822983633207	-0.21772613159218135	1.503684767976658	-1.244253897860173	-0.05227449925234667	1.981092514469368	-0.7324794430636007	-0.07393082199947494	2.023064680234076	-0.7619414758913355	-1.739880556453424	1.8903069087192386	1.1711124022260653	-0.1339970298997863	1.9215228501990305	-0.5811954415732479	-0.19645455444666182	1.8809734772946032	-0.541559391032383	-0.013620587347909493	1.9784939160984687	-0.8125725747490059	-0.04396943596506173	1.9232405399175363	-0.8214396273682681	-1.3550526942233074	1.8808055121740943	0.5617044760357858
77	2.566666666666667	-0.0876319936762789	1.8346573487805073	-0.6900627483384417	-0.11253044516099611	1.8329899612486489	-0.6335440108645845	-0.1384183519946996	1.7051437196446408	-0.6277169242021469	-0.1309780071372593	1.5752655684826982	-0.5851082102476777	-0.1683173714910366	1.5483618540460506	-0.6112105285599609	-0.16728522796080506	1.5518177652607705	-0.5833189990889193	-0.12070253083975152	1.5682757083226149	-0.5861155908717047	-0.06320434319311774	1.8335606632998267	-0.7409523814925417	-0.08038141189384895	1.704358974163727	-0.7226128091873505	-0.20876412907260122	1.5150791877327334	-1.2381407989101885	-0.19673264190354142	1.4905357595914004	-1.1879952825138207	-0.1789270630685365	1.4952838753456148	-1.2122613985876418	-0.21800488526837028	1.5040965111602826	-1.2438240444086697	-0.05004099937418807	1.9810985729763804	-0.7349139104216138	-0.07169017857520105	2.024561066374345	-0.7647313488343956	-1.7296410067959769	1.8903407448246794	1.1534470641107235	-0.13775544864694897	1.9190279499802312	-0.5850114524885898	-0.20170259684300562	1.8786260724045294	-0.5401278790251218	-0.013005528903962425	1.979321555857954	-0.8098198250707401	-0.04178011375830276	1.9203263477330639	-0.8234199710595359	-0.05497039108892325	1.9761209423964483	-0.8066264892615159
